<?xml version="1.0" encoding="UTF-8" standalone="no"?>
<!-- Created with Inkscape (http://www.inkscape.org/) -->

<svg
   version="1.1"
   id="svg1"
   width="1024"
   height="1536"
   viewBox="0 0 1024 1536"
   sodipodi:docname="logo.svg"
   inkscape:version="1.4.2 (f4327f4, 2025-05-13)"
   xmlns:inkscape="http://www.inkscape.org/namespaces/inkscape"
   xmlns:sodipodi="http://sodipodi.sourceforge.net/DTD/sodipodi-0.dtd"
   xmlns="http://www.w3.org/2000/svg"
   xmlns:svg="http://www.w3.org/2000/svg">
  <sodipodi:namedview
     id="namedview1"
     pagecolor="#ffffff"
     bordercolor="#000000"
     borderopacity="0.25"
     inkscape:showpageshadow="2"
     inkscape:pageopacity="0.0"
     inkscape:pagecheckerboard="0"
     inkscape:deskcolor="#d1d1d1"
     inkscape:zoom="0.54091827"
     inkscape:cx="219.99626"
     inkscape:cy="697.88731"
     inkscape:window-width="2560"
     inkscape:window-height="1377"
     inkscape:window-x="-8"
     inkscape:window-y="-8"
     inkscape:window-maximized="1"
     inkscape:current-layer="g38" />
  <defs
     id="defs1" />
  <g
     id="g38"
     style="display:inline;opacity:1;mix-blend-mode:normal">
    <ellipse
       style="display:inline;opacity:1;mix-blend-mode:normal;fill:#000000;fill-opacity:1;stroke-width:0.987796"
       id="path1"
       cx="508.51401"
       cy="973.23572"
       rx="236.60936"
       ry="307.85361" />
    <path
       id="path40"
       style="display:inline;fill:#f9f5ed"
       d="M 492.23191,1291.9107 C 319.37057,1275.8051 213.68294,1025.3838 295.39652,825.51958 c 92.60632,-226.50691 334.7936,-225.09177 427.84848,2.5 88.07989,215.42402 -44.3166,481.28582 -231.01309,463.89112 z m 12.44625,-61.3825 c 5.27856,-5.2778 3.86191,-23.4002 -2.07771,-26.579 -8.80787,-4.7138 -14.71017,0.8414 -15.09273,14.2052 -0.42048,14.6885 8.45702,21.086 17.17044,12.3738 z m 102.75851,-28.7441 c 11.66601,-5.5775 -3.8766,-30.8332 -16.42619,-26.6914 -9.73408,3.2125 -9.40629,10.9355 0.92466,21.786 6.72113,7.0592 9.29379,7.8733 15.50153,4.9054 z m -190.0231,-30.0145 c 13.18032,-13.935 13.46377,-25.75 0.61777,-25.75 -6.88434,0 -17.29943,11.5449 -17.29943,19.176 0,9.0999 10.41164,13.203 16.68166,6.574 z m 113.9791,-42.2823 c 8.49978,-5.4948 -1.07416,-28.9223 -11.81947,-28.9223 -9.74083,0 -12.03585,8.1342 -5.79636,20.5439 5.34318,10.6271 10.40978,13.0368 17.61583,8.3784 z m 118.9722,-36.24 c 6.4032,-5.1867 4.52604,-14.7729 -4.88817,-24.9624 -4.48079,-4.8498 -13.06149,-3.4211 -16.22786,2.7019 -5.41735,10.476 12.43311,29.294 21.11603,22.2605 z m -293.25516,-10.7531 c 10.5687,-7.388 12.50381,-12.7469 6.69912,-18.5515 -6.71436,-6.7144 -26.8735,3.0459 -27.25508,13.1959 -0.41703,11.0932 8.88238,13.516 20.55596,5.3556 z m 92.70858,-17.0528 c 8.79324,-7.9578 -0.409,-20.1681 -16.69312,-22.1498 -8.62547,-1.0498 -14.90436,10.7058 -8.89326,16.6502 5.96154,5.8955 21.46644,9.2281 25.58638,5.4996 z m 109.47603,-44.421 c 15.27397,-5.1256 17.74431,-21.0008 3.26792,-21.0008 -18.55837,0 -30.71762,17.166 -16.33033,23.0546 3.02557,1.2384 3.45114,1.1714 13.06241,-2.0538 z m 106.83902,-17.3952 c 19.359,-4.32842 8.8176,-13.31885 -3.68051,-21.46168 -10.28819,-6.70303 -19.72092,-4.28438 -19.72092,5.05663 0,5.6207 11.41662,15.85645 19.78212,17.73605 0.15517,0.035 1.78385,-0.5641 3.61931,-1.331 z M 483.58689,987.59458 c 10.28627,-5.31924 1.54938,-29.575 -10.65287,-29.575 -9.85933,0 -12.05844,7.58811 -5.74291,19.81614 5.6673,10.97294 9.56349,13.29197 16.39578,9.75886 z m -132.34402,-12.7704 c 7.7057,-9.15769 -2.6921,-18.8046 -20.26829,-18.8046 -14.93667,0 -12.1576,17.09547 3.31977,20.42157 4.36566,0.93819 8.37058,1.82147 8.89982,1.96286 2.38697,0.63769 5.7636,-0.86414 8.0487,-3.57983 z m 225.32016,-40.89557 c 7.34755,-2.56137 14.71987,-19.32016 10.95767,-24.90903 -6.55726,-9.74103 -18.99592,-2.93189 -23.90799,13.08764 -2.35461,7.67895 5.15891,14.53749 12.95032,11.82139 z m -161.51538,-1.02607 c 7.75425,-3.96556 7.73046,-10.87412 -0.0657,-19.09368 -8.99909,-9.48776 -15.70901,-10.68284 -20.61931,-3.67241 -5.9889,8.55036 11.29195,27.56977 20.68505,22.76609 z m 262.64587,-9.2983 c 19.06826,-3.09937 18.35435,-21.86034 -0.76755,-20.17041 -14.87833,1.3149 -18.6486,3.71257 -18.6486,11.85942 0,8.36007 5.2606,10.61184 19.41615,8.31099 z M 503.80883,871.0965 c 7.22299,-7.22298 -1.03129,-27.07692 -11.25723,-27.07692 -8.62795,0 -11.28314,6.53475 -7.20758,17.73871 4.62173,12.70537 11.5791,16.22393 18.46481,9.33821 z m -127.3828,-17.23702 c 6.00675,-4.98143 4.84639,-11.02454 -3.70139,-19.27673 -9.39021,-9.06548 -19.4234,-8.55293 -21.26607,1.0864 -1.97227,10.31728 17.42241,24.44748 24.96746,18.19033 z m 233.00464,-28.88473 c 2.79463,-0.97421 11.26524,-9.66141 14.01581,-14.37416 2.96819,-5.08564 -0.63513,-12.74574 -6.61325,-14.05876 -13.88149,-3.04888 -26.98545,23.31458 -14.10132,28.37003 3.2616,1.27978 3.20939,1.27929 6.69876,0.0629 z M 435.80883,805.0965 c 6.83858,-6.83857 -1.79211,-27.07692 -11.54702,-27.07692 -9.7345,0 -12.48707,6.61678 -7.54209,18.13008 5.26045,12.2478 12.42855,15.60741 19.08911,8.94684 z m 98.05972,-28.48628 c 5.83823,-5.83824 8.22458,-21.38327 3.94028,-25.66756 -9.51249,-9.5125 -26.31068,10.05526 -19.6648,22.90698 2.99692,5.7954 11.24217,7.24293 15.72452,2.76058 z" />
    <path
       d="m 148.43399,912.76958 c -3.67926,-2.73726 -4.82249,-21.09045 -2.2343,-35.86901 4.80223,-27.42075 20.41408,-53.36371 50.94788,-84.66252 26.226,-26.88309 33.97977,-27.0858 25.5171,-0.6671 -4.08974,12.76735 -8.23561,31.44454 -12.5197,56.40148 -8.29208,48.30538 -11.32676,54.85246 -24.83815,53.58634 -9.6685,-0.90602 -15.49585,0.75582 -26.03399,7.42432 -8.89878,5.63112 -8.53174,5.5029 -10.83884,3.78649 z m 669.62104,-26.21012 c -2.76498,-1.20268 -3.26066,-2.00794 -3.82311,-6.21086 -1.24137,-9.27609 -4.51776,-20.72595 -9.08106,-31.7352 -2.5291,-6.1016 -9.23434,-22.56882 -14.90054,-36.59382 -5.6662,-14.025 -12.09147,-29.55 -14.27839,-34.5 -2.18692,-4.95 -6.10595,-17.1 -8.70896,-27 -13.12674,-49.92478 -17.65999,-63.64061 -24.18314,-73.16864 -9.93872,-14.51699 -2.60462,-20.97431 12.0181,-10.58136 39.22637,27.87975 81.42779,91.91147 95.75406,145.28656 10.18111,37.93155 -10.23764,84.31589 -32.79696,74.50332 z M 361.20634,571.76958 c -0.31002,-1.2375 0.21906,-5.4 1.17573,-9.25 1.51123,-6.08177 1.75248,-12.77176 1.83916,-51 0.20045,-88.40573 14.06867,-123.13378 72.48547,-181.51434 78.76636,-78.71748 94.98111,-66.95744 35.4238,25.69175 -31.93023,49.67167 -38.18872,70.8395 -39.27036,132.82259 -0.57949,33.20697 -1.19564,40.5 -3.42163,40.5 -10.44932,0 -38.03072,17.42411 -55.18096,34.85969 -10.4116,10.58482 -12.11776,11.61631 -13.05121,7.89031 z M 625.23191,559.4575 C 558.75423,549.35019 506.98172,506.57576 480.81817,440.14294 c -13.7808,-34.99132 -13.42688,-37.71229 9.72629,-74.7764 20.98662,-33.59587 33.43133,-64.28253 46.21842,-113.96729 9.15924,-35.58858 -4.65899,-35.42709 -41.27668,0.48238 -15.59951,15.29781 -15.91243,15.38123 -12.75316,3.39998 16.3912,-62.16213 52.21576,-129.77643 89.49887,-168.917743 13.32995,-13.994313 14.72767,-11.643222 22.38639,37.655713 15.82296,101.85189 16.93427,175.25528 3.98936,263.5 -10.80838,73.68016 -2.66149,101.74556 46.02835,158.56393 12.93456,15.09392 9.13453,17.71303 -19.4041,13.37399 z"
       id="path39"
       style="display:inline;fill:#8da962" />
    <path
       d="m 493.07348,1402.5401 c -20.54828,-3.7287 -36.08681,-12.1922 -50.85246,-27.6982 -8.36564,-8.7852 -9.26812,-9.1208 -30.37912,-11.2979 -8.4645,-0.8729 -23.7645,-3.1838 -34,-5.1354 -10.23549,-1.9517 -20.18499,-3.796 -22.10999,-4.0986 -14.37807,-2.2599 -15.43514,-6.1569 -10.92869,-40.2904 3.3845,-25.6354 3.33379,-25.7858 -13.57131,-40.2533 -13.30486,-11.3864 -21.66406,-20.1273 -35.68576,-37.3152 -20.8734,-25.5867 -28.79717,-30.9511 -56.81424,-38.463 -16.0656,-4.3074 -25.07238,-8.8563 -32.76346,-16.5471 -15.75658,-15.7559 -11.77815,-25.9039 8.00602,-20.4214 22.76085,6.3073 31.76746,1.1205 24.78699,-14.2746 -11.65644,-25.7077 -19.63728,-53.2033 -29.52668,-101.7254 -12.09376,-59.33773 -19.87862,-78.10383 -43.00983,-103.67911 -7.57075,-8.37068 -7.52915,-8.20401 -3.03278,-12.15188 12.23421,-10.74177 22.11969,-11.72975 35.81501,-3.57945 14.90741,8.87162 15.81948,8.24153 18.22372,-12.58958 7.92211,-68.63963 29.81715,-122.36369 83.13944,-204 17.73259,-27.14857 20.81619,-32.06642 42.46269,-67.72138 37.32659,-61.48237 52.82044,-76.97402 97.70101,-97.68716 9.33723,-4.30929 9.59366,-4.8386 11.51056,-23.75891 2.3566,-23.26037 2.73502,-28.79921 3.56009,-52.10887 0.98215,-27.7469 3.90012,-32.12647 10.6449,-15.97686 32.93445,78.85775 96.165,128.22489 164.26444,128.24916 19.82648,0.007 24.28542,4.58021 27.7922,28.50402 3.07836,21.00104 8.29289,32.66947 23.52726,52.64637 80.14542,105.09508 110.34881,168.61945 121.394,255.31823 2.43471,19.11118 7.01151,20.5416 12.54279,3.92011 5.17269,-15.54394 15.82274,-16.92976 16.76186,-2.1811 0.90201,14.1658 -10.08068,81.98191 -23.25095,143.57031 -5.29628,24.7671 -5.08628,22.6891 -2.54928,25.2261 4.48941,4.4894 17.54499,1.1416 32.44554,-8.3198 10.26485,-6.5179 11.62982,-6.7587 15.63138,-2.7571 8.84412,8.8441 -12.41631,31.7498 -46.57692,50.1813 -15.25753,8.2323 -18.92512,12.4067 -25.38756,28.8956 -21.76041,55.5216 -54.55469,100.2225 -96.61244,131.6895 -16.37733,12.2533 -17.2096,20.5209 -2.76053,27.4224 24.08601,11.5045 -17.6161,35.7844 -76.97573,44.8171 -17.14689,2.6092 -19.10134,3.5536 -26.25431,12.6854 -18.92465,24.1602 -54.61239,36.8136 -87.16786,30.9061 z m 41.96219,-111.1265 C 751.96498,1261.7206 828.94171,895.09848 654.94282,720.32393 542.73699,607.61791 384.01672,644.29198 305.70331,801.01958 194.48741,1023.5945 332.68544,1319.1109 535.03567,1291.4136 Z"
       id="path38"
       style="display:inline;fill:#b23c71" />
  </g>
</svg>
